<?xml version="1.0" encoding="utf-8"?>
<!-- Generator: Adobe Illustrator 23.0.1, SVG Export Plug-In . SVG Version: 6.00 Build 0)  -->
<svg version="1.1" id="Layer_1" xmlns="http://www.w3.org/2000/svg" xmlns:xlink="http://www.w3.org/1999/xlink" x="0px" y="0px"
	 viewBox="0 0 2000 2000" style="enable-background:new 0 0 2000 2000;" xml:space="preserve">
<style type="text/css">
	.st0{fill:#FFFFFF;}
	.st1{fill:#010101;}
	.st2{fill:#474647;}
	.st3{fill:#8DC63F;}
	.st4{fill:#939598;}
	.st5{fill:#F7941D;}
	.st6{fill:none;stroke:#000000;stroke-width:49.1091;stroke-linecap:round;stroke-linejoin:round;stroke-miterlimit:10;}
</style>
<path class="st0" d="M996.6,1737.3l722.02,130.99c0,0,11.33-78.42-48.17-83.37c-10.22-0.85-28.16-0.41-50.79,0.84
	c26.34-14.14,43.86-28.72,40.56-36.37c-5.54-12.85-80.97,20.68-127.44,42.82c-4.14,0.36-8.3,0.71-12.5,1.08
	c94.44-48.48,151.15-143.32,151.15-327.35c0-105.5-18.63-230.33-52.32-358.29c26.96,21.3,50.12,33.71,52.32,15.74
	c2.88-23.62-29.38-62.97-60.56-94.99c26.45,13.84,48.73,15.6,48.73,4.21c0-13.43-44.94-37.44-79.25-53.82
	c-102.08-301.87-280.98-591.03-490.38-656.38c50.47-24.44,117.4-61.4,99.22-77.93c-19.19-17.46-73.46,17.05-122.42,46.79
	c32.79-39.85,46-83.44,24-89.72c-21.3-6.08-48.69,20.77-73.68,63.89c7.09-46.82,0.81-99.31-67.65-101.7
	c-62.73-2.19-33.4,63.81-3.77,112.1c-101.42-44.53-54,13.36-24.45,44.59c-157.8,45.52-298.68,218.6-402.97,429.8
	c-111.8-1.98-152.41,34.54-143.81,67.66c5.54,21.32,40.87,29.93,99.27-12.92c-46.98,46.28-125.59,129.87-115.21,161.56
	c7.12,21.74,41.89,5.8,76.02-17.45c-64.23,180.44-101.39,367.92-101.39,516.87c0,3.59,0.19,6.87,0.24,10.4l-0.12-0.11
	c0,0-110.85,86.38-91.02,125.9c8.86,17.66,32.85-1.21,56.66-27.46c-25.85,50.13-45.22,102.84-19.82,113.91
	c28.96,12.62,50.32-50.37,63.4-107.2c17.9,100.9,61.14,163.46,123.57,201.74c-45.53-20.99-103.25-44.92-108.06-33.73
	c-3.29,7.65,14.22,22.23,40.56,36.37c-22.63-1.25-40.57-1.69-50.79-0.84c-59.51,4.94-48.17,83.37-48.17,83.37L996.6,1737.3z"/>
<ellipse class="st0" cx="1379.36" cy="699.23" rx="180.9" ry="189.95"/>
<ellipse class="st0" cx="629.62" cy="699.23" rx="180.9" ry="189.95"/>
<g>
	<g>
		<path class="st1" d="M654.15,678.63c-38.44-0.84-70.32,29.64-71.17,68.08c-0.84,38.45,29.64,70.32,68.11,71.17
			c38.44,0.84,70.3-29.65,71.13-68.11C723.08,711.33,692.58,679.47,654.15,678.63z"/>
		<path class="st2" d="M630.07,699.24c-11.4-0.25-20.85,8.8-21.1,20.2c-0.25,11.41,8.79,20.86,20.19,21.11
			c11.42,0.25,20.86-8.8,21.1-20.2C650.53,708.94,641.49,699.5,630.07,699.24z"/>
	</g>
	<g>
		<path class="st3" d="M1528.45,736.56l66.49-340.87l58.73,11.46l-66.53,341.11L1528.45,736.56z"/>
		<path class="st3" d="M889.48,700.09c2.21,51.43-10.22,98.3-37.58,139.93c-27.36,41.62-63.69,71.33-109.43,90.17
			c-57.63,23.5-117.04,22.85-178.51-2.71c-61.77-26.28-104.94-68.48-129.32-128.32c-26.3-62.54-25.62-126.25,2.61-189.64
			c28.68-64.41,74.43-107.26,139-128.36c57.89-18.46,115.95-14.71,174.46,12.01c56.73,26.56,95.46,66.2,116.19,118.92l11.97,30.44
			L498.68,791.99c21.09,40.57,52.93,69.2,95.66,84.14c42.72,14.91,85.39,14.43,128.17-3.23c66.54-27.02,101.8-76.89,106.83-149.16
			L889.48,700.09z M802.73,612.45c-23.63-36.13-54.75-60.78-93.35-73.9c-38.59-13.1-78.45-12.02-119.58,3.29
			c-41.13,15.33-71.81,41.95-92.62,78.42c-20.8,36.48-26.53,76.44-18.94,119.75L802.73,612.45z"/>
		<path class="st3" d="M1518.33,879.37c-47.07,47.06-103.72,70.2-169.14,67.81c-63.03-1.59-117.29-25.53-161.17-71.81
			c-43.89-46.28-65.43-101.32-65.43-165.15c0-66.22,23.93-123.68,71-170.74c47.07-47.87,103.72-71,169.15-68.61
			c63.03,2.39,117.28,26.31,161.17,73.4c43.87,46.28,66.22,101.32,66.22,165.15C1590.13,774.86,1566.2,831.49,1518.33,879.37z
			 M1349.98,887.35c50.27,2.39,92.54-14.37,127.65-51.87c35.9-37.49,52.66-80.59,51.86-130.85c-1.59-47.87-19.15-88.55-51.86-122.87
			c-32.72-34.29-71.81-51.06-118.09-51.06c-48.66-0.78-89.36,16.77-123.66,51.06c-34.31,34.32-51.06,75.01-51.86,123.68
			c-0.79,47.87,14.36,90.14,47.07,126.05S1302.91,885.74,1349.98,887.35z"/>
		<polygon class="st3" points="1159.03,425.69 1392.85,473.82 1198.96,584.78 1143.23,592.29 		"/>
		<polygon class="st3" points="860.57,426.17 616.99,471.14 837.34,604.59 884.31,628.4 		"/>
		<polygon class="st3" points="1217.9,437.81 1158.96,426.17 1005.78,786.8 860.57,426.17 799.29,443.02 968.26,866.52 
			968.26,1014.07 1037.97,1014.07 1037.97,866.21 		"/>
		<polygon class="st4" points="1004.94,400.26 896.3,424.26 1005.39,720.12 1127.78,421.43 		"/>
		<polygon points="1004.94,400.26 894.57,420.63 1005.39,720.12 		"/>
		<path class="st3" d="M419.25,748.25l-66.53-341.11l58.73-11.46l66.49,340.87L419.25,748.25z"/>
	</g>
	<g>
		<path class="st1" d="M1350.74,650.5c-38.45-0.85-70.32,29.63-71.16,68.08c-0.84,38.45,29.67,70.32,68.1,71.17
			c38.44,0.85,70.31-29.64,71.15-68.1C1419.67,683.2,1389.19,651.35,1350.74,650.5z"/>
		<path class="st2" d="M1326.68,671.11c-11.41-0.24-20.87,8.79-21.11,20.2c-0.26,11.41,8.8,20.85,20.2,21.11
			c11.41,0.24,20.87-8.8,21.12-20.2C1347.13,680.81,1338.08,671.36,1326.68,671.11z"/>
	</g>
	<g>
		<path class="st1" d="M1235.86,963.7l-488.02,68.38c-13.98,1.96-23.71,14.87-21.75,28.86c20.81,148.52,158.53,252.41,307.06,231.59
			c148.52-20.81,252.38-158.55,231.57-307.07C1262.76,971.49,1249.87,961.74,1235.86,963.7z"/>
		<path class="st5" d="M1011.22,1136.11c-93.5,13.09-171.88,49.3-214.55,72.52c58.49,62.51,145.42,96.66,236.47,83.91
			c91.04-12.76,165.23-69.49,204.29-145.67C1190.03,1136.26,1104.73,1123,1011.22,1136.11z"/>
	</g>
	<line class="st6" x1="938.6" y1="957.2" x2="1072.18" y2="935.84"/>
</g>
<path d="M802.73,612.45c-23.63-36.13-54.75-60.78-93.35-73.9c-38.59-13.1-78.45-12.02-119.58,3.29
	c-41.13,15.33-71.81,41.95-92.62,78.42c-20.8,36.48-26.53,76.44-18.94,119.75L802.73,612.45z"/>
<path class="st3" d="M1670.45,1784.92c-10.22-0.85-28.16-0.41-50.79,0.84c26.35-14.14,43.86-28.72,40.56-36.37
	c-5.54-12.85-80.97,20.68-127.44,42.82c-4.14,0.36-8.3,0.71-12.5,1.08c94.44-48.48,151.15-143.32,151.15-327.35
	c0-103.59-18.05-225.85-50.59-351.39c-31.65,303.04-154.6,406.51-624.24,497.08c-398.05,76.77-581.47-137.31-636.08-396.08
	c-17.79,89.4-27.39,174.85-27.39,250.38c0,3.59,0.19,6.87,0.24,10.4l-0.12-0.11c0,0-110.85,86.38-91.02,125.91
	c8.86,17.66,32.84-1.21,56.66-27.46c-25.85,50.13-45.22,102.84-19.82,113.91c28.95,12.62,50.32-50.37,63.4-107.2
	c17.91,100.91,61.14,163.46,123.57,201.74c-45.53-20.99-103.25-44.92-108.06-33.73c-3.29,7.65,14.22,22.23,40.56,36.37
	c-22.63-1.25-40.57-1.69-50.79-0.84c-59.51,4.94-48.17,83.37-48.17,83.37h0.02l-0.02-0.15l730.54-99.79l688.5,99.79l-3.08,0.16
	l3.08-0.01C1718.62,1868.29,1729.95,1789.86,1670.45,1784.92z"/>
</svg>
